<?xml version="1.0" encoding="utf-8"?>
<!-- Generator: Adobe Illustrator 24.0.1, SVG Export Plug-In . SVG Version: 6.00 Build 0)  -->
<svg version="1.1" id="Layer_1" xmlns="http://www.w3.org/2000/svg" xmlns:xlink="http://www.w3.org/1999/xlink" x="0px" y="0px"
	 viewBox="0 0 480 375" style="enable-background:new 0 0 480 375;" xml:space="preserve">
<style type="text/css">
	.st0{fill:#2560B6;}
	.st1{opacity:0.1;}
	.st2{fill:#FFFFFF;}
	.st3{fill:#171F3D;}
	.st4{fill:#D0EEFC;}
	.st5{fill:#000454;}
	.st6{fill:#EE4266;}
	.st7{fill:#60B5EF;}
	.st8{fill:#9B402C;}
	.st9{fill:#DD335C;}
	.st10{fill:#EBF6FC;}
</style>
<ellipse class="st0" cx="163" cy="321.5" rx="46" ry="6.5"/>
<ellipse class="st0" cx="333.5" cy="321.5" rx="108.5" ry="6.5"/>
<g class="st1">
	<path class="st2" d="M20.61,271.34c3.59-4.53,9.69-6.32,11.82-12.01c3.45-9.23-5.86-18.05-12.63-24.88
		c-10.25-10.33-17.1-28.67-9.93-41.31c2.23-3.93,5.57-6.84,7.86-10.73c5.28-8.98,4.02-21.37,1.42-32.22s-6.37-21.81-5.48-32.85
		c0.89-11.04,8.69-22.04,18.11-20.1c9.9,2.04,14.53,15.64,17.21,27.05c2.25,9.56,4.5,19.11,6.75,28.67c2.02,8.59,7,19.47,14.24,17.5
		c2.29-0.62,4.13-2.54,6.32-3.48c5.74-2.47,12.55,2.59,15.31,9.26c2.76,6.67,2.45,14.33,1.73,21.52
		c-1.71,17.05-5.41,33.72-10.97,49.4c7.54-7.93,21.1-0.18,24.98,11.28c10.46,30.91-12.16,73.31-40.59,69.29
		C51.59,325.59,2.22,294.56,20.61,271.34z"/>
</g>
<g class="st1">
	<path class="st2" d="M47.91,268.89c4.07-2.15,9.08-1.5,12.46-4.96c5.47-5.62,1.52-15.03-1.22-22.18
		c-4.15-10.81-3.26-26.37,6.01-33.28c2.89-2.15,6.25-3.19,9.17-5.3c6.72-4.85,9.78-14.28,11.37-23.02
		c1.59-8.74,2.35-17.93,6.54-25.69c4.19-7.76,13.39-13.27,19.64-8.84c6.56,4.66,5.57,16.05,3.87,25.23
		c-1.43,7.68-2.85,15.37-4.28,23.05c-1.28,6.91-1.14,16.43,4.76,17.32c1.87,0.28,3.82-0.53,5.72-0.51
		c4.98,0.04,8.31,5.91,8.19,11.66c-0.13,5.74-2.81,11.23-5.64,16.24c-6.71,11.87-14.75,22.83-23.83,32.47
		c8.03-3.36,15.43,6.63,14.58,16.23c-2.29,25.87-32.36,49.51-51.79,37.46C53.09,318.34,27.07,279.91,47.91,268.89z"/>
</g>
<g id="XMLID_3397_">
	<g id="XMLID_4098_">
		<g>
			<g>
				<g>
					<g>
						<g>
							<g>
								<g>
									<g>
										<g>
											<g>
												<g>
													<g>
														<g>
															<g>
																<polygon class="st3" points="283.44,317.56 257.1,206.44 232.8,317.55 231.45,317.25 257.05,200.2 284.79,317.24 
																																	"/>
															</g>
														</g>
													</g>
												</g>
											</g>
										</g>
									</g>
								</g>
							</g>
						</g>
					</g>
				</g>
			</g>
		</g>
		<g>
			<g>
				<g>
					<g>
						<g>
							<g>
								<g>
									<g>
										<g>
											<g>
												<g>
													<g>
														<g>
															<g>
																<polygon class="st3" points="347.21,317.56 320.88,206.44 296.57,317.55 295.22,317.25 320.82,200.2 348.56,317.24 
																																	"/>
															</g>
														</g>
													</g>
												</g>
											</g>
										</g>
									</g>
								</g>
							</g>
						</g>
					</g>
				</g>
			</g>
		</g>
		<g>
			<g>
				<g>
					<g>
						<g>
							<g>
								<g>
									<g>
										<g>
											<g>
												<g>
													<g>
														<g>
															<polygon class="st4" points="331.94,232.36 242.52,232.36 263.32,99.61 352.74,99.61 															"/>
														</g>
													</g>
												</g>
											</g>
										</g>
									</g>
								</g>
							</g>
						</g>
					</g>
				</g>
			</g>
		</g>
		<g>
			<g>
				<g>
					<g>
						<g>
							<g>
								<g>
									<g>
										<g>
											<g>
												<g>
													<g>
														<g>
															<rect x="255.69" y="98.23" class="st3" width="103.98" height="6.22"/>
														</g>
													</g>
												</g>
											</g>
										</g>
									</g>
								</g>
							</g>
						</g>
					</g>
				</g>
			</g>
		</g>
		<g>
			<g>
				<g>
					<g>
						<g>
							<g>
								<g>
									<g>
										<g>
											<g>
												<g>
													<g>
														<g>
															<rect x="236.98" y="226.83" class="st3" width="103.98" height="6.22"/>
														</g>
													</g>
												</g>
											</g>
										</g>
									</g>
								</g>
							</g>
						</g>
					</g>
				</g>
			</g>
		</g>
		<g>
			<g>
				<g>
					<g>
						<g>
							<g>
								<g>
									<g>
										<g>
											<g>
												<g>
													<g>
														<g>
															<rect x="285.84" y="159.49" class="st2" width="12.48" height="45.7"/>
														</g>
													</g>
												</g>
											</g>
										</g>
									</g>
								</g>
							</g>
						</g>
					</g>
				</g>
			</g>
		</g>
		<g>
			<g>
				<g>
					<g>
						<g>
							<g>
								<g>
									<g>
										<g>
											<g>
												<g>
													<g>
														<g>
															<rect x="262.97" y="184.66" class="st5" width="12.48" height="20.53"/>
														</g>
													</g>
												</g>
											</g>
										</g>
									</g>
								</g>
							</g>
						</g>
					</g>
				</g>
			</g>
		</g>
		<g>
			<g>
				<g>
					<g>
						<g>
							<g>
								<g>
									<g>
										<g>
											<g>
												<g>
													<g>
														<g>
															<rect x="308.72" y="130.93" class="st6" width="12.48" height="74.26"/>
														</g>
													</g>
												</g>
											</g>
										</g>
									</g>
								</g>
							</g>
						</g>
					</g>
				</g>
			</g>
		</g>
	</g>
</g>
<g id="New_Symbol_146_34_">
	<g>
		<g>
			<path class="st6" d="M353.71,165.72c-1.2,3.68-2.04,7.45-2.07,11.39c-0.03,4.12,0.66,7.76,5.47,8.74
				c3.08,0.63,6.24-0.31,9.24-1.23c2.63-0.81,5.3-1.63,7.64-3.09c5.82-3.62,5.52-9.99,5.18-16.16c-0.62-11.13-2.12-23.76-8.53-33.22
				c-0.44-0.64-1.37-0.68-1.88-0.1c-5.39,6.13-7.01,13.43-9.93,20.71C357.11,157.04,355.15,161.32,353.71,165.72z"/>
		</g>
	</g>
	<g id="XMLID_727_">
		<g>
			<g>
				<path class="st5" d="M358.78,320.83v1.62h21.98l0.01-2.25l0.08-18.02h-8.75v11.26l-10.59,3.58c-1.43,0.48-2.45,1.72-2.68,3.18
					C358.79,320.41,358.78,320.62,358.78,320.83z"/>
			</g>
			<g>
				<polygon class="st5" points="372.1,302.18 372.1,312.31 380.8,312.31 380.85,302.18 				"/>
			</g>
			<g>
				<path class="st5" d="M358.78,320.83v1.62h21.98l0.01-2.25h-21.94C358.79,320.41,358.78,320.62,358.78,320.83z"/>
			</g>
		</g>
	</g>
	<g id="XMLID_723_">
		<g>
			<g>
				<path class="st5" d="M419.36,321.19v1.62h-21.98l-0.01-2.25l-0.08-18.02h8.75v11.26l10.59,3.58c1.43,0.48,2.45,1.72,2.68,3.18
					C419.34,320.77,419.36,320.98,419.36,321.19z"/>
			</g>
			<g>
				<polygon class="st5" points="406.03,302.54 406.03,312.68 397.33,312.68 397.29,302.54 				"/>
			</g>
			<g>
				<path class="st5" d="M419.36,321.19v1.62h-21.98l-0.01-2.25h21.94C419.34,320.77,419.36,320.98,419.36,321.19z"/>
			</g>
		</g>
	</g>
	<g>
		<g>
			<path class="st7" d="M364.64,258.13c0.77-17.41,1.87-34.86,5.04-51.99c0.87-4.69,1.18-10.71,2.68-15.82
				c0.69-2.37,1.64-4.54,3.02-6.29c1.69-2.15,6.02-1.44,8.36-1.41c0.49,0,0.87-0.19,1.34-0.23c1.06-0.1,2.12-0.37,3.19-0.44
				c1.08-0.07,2.24,0.22,3.3-0.07c0.79-0.22,1.6-0.38,2.42-0.35c0.52,0.02,0.96-0.19,1.46-0.24c0.45-0.05,0.94,0.02,1.39,0.02
				c0.47,0,0.89-0.13,1.35-0.21c0.56-0.09,1.12,0.04,1.68-0.07c1.89-0.35,3.9-0.17,5.82-0.17h5.59c0.9,0,1.79,0.01,2.69,0
				c9.5-0.17,6.34,17.67,6.09,23.17c-0.57,12.03-1.23,24.06-1.98,36.09c-0.65,12.31-3.3,22.54-4.27,34.83
				c-0.48,6.15-1.41,14.37-1.94,20.51c-0.28,3.19-0.98,6.37-1.26,9.56c-0.48,3.01-0.09,7.19-3.51,8.56
				c-2.68,1.07-6.19,0.45-9.91,0.02c-0.98-0.12-1.72-0.96-1.7-1.95c0.2-8.72-0.76-18.5-0.67-27.12c0.11-11.06,0.21-22.12,0.32-33.17
				c0.09-9.83,0.19-19.66,0.28-29.48c0.03-2.89,1.44-9.73,0.12-12.4c0,0-2.19-4.42-2.19-4.42c-1.83,11.81-3.65,23.63-5.48,35.44
				c-3.26,21.09-3.25,42.18-4.79,63.48c-0.22,3.04-1.15,9.34-1.15,9.34c-2.76,1.44-10.61-0.18-13.26-1.32
				c-0.95-2.76-0.73-8.84-0.93-10.82c-0.42-4.03-0.78-8.07-1.13-12.1c-0.72-8.41-1.35-16.84-2.22-25.24
				C364.45,261.93,364.55,260.04,364.64,258.13z"/>
		</g>
	</g>
	<g>
		<g>
			<path class="st5" d="M372.35,190.32c5.13,0.17,9.8-0.96,15.09-1.15c7.36-0.26,21.62-2.12,29.94-7.51
				c-0.27-0.02-0.59-0.02-0.74-0.07c-0.93-0.29-1.71-0.73-2.7-0.72c-0.9,0.02-1.79,0-2.69,0h-5.59c-1.93,0-3.93-0.18-5.82,0.17
				c-0.56,0.1-1.12-0.02-1.68,0.07c-0.46,0.07-0.88,0.21-1.35,0.21c-0.45,0-0.94-0.06-1.39-0.02c-0.46,0.05-0.88,0.22-1.35,0.24
				c-0.91,0.02-1.81,0.2-2.7,0.39c-1.01,0.22-2.11-0.05-3.12,0.02c-1.07,0.07-2.12,0.35-3.19,0.44c-0.47,0.04-0.85,0.24-1.34,0.23
				c-2.34-0.03-6.67-0.74-8.36,1.41C374,185.78,373.05,187.95,372.35,190.32z"/>
		</g>
	</g>
	<g>
		<g>
			<g>
				<path class="st5" d="M392.21,107.6c0.57-1.88,1.5-3.51,3.49-3.6c1.78-0.08,2.64,1.44,4.41,1.64c1.28,0.15,3.39,0.16,4.59,0.6
					c1.85,0.68,2.6,2.09,2.94,4.01c0.4,2.29,0.52,4.62,0.36,6.94c-0.08,1.24-0.33,2.63-1.35,3.35c-1.28,0.91-3.15,0.29-4.23-0.84
					c-0.42-0.44-0.77-0.95-1-1.51c-0.27-0.64-0.38-1.33-0.62-1.98c-0.45-1.23-1.44-2.33-2.74-2.61c-1.66-0.36-4.5,1.63-5.66,0.35
					C391.06,112.49,391.68,109.36,392.21,107.6z"/>
			</g>
		</g>
		<g>
			<g>
				<path class="st8" d="M396.89,124.05c0.41-0.29,0.94-0.45,1.54-0.36c2.53,0.35,5.05,0.75,7.59,1.02v-10.9
					c0-3.48-2.88-6.34-6.41-6.34h-0.01c-3.52,0-6.42,2.86-6.42,6.34v6.05C393.24,120.81,393.72,123.04,396.89,124.05z"/>
			</g>
		</g>
		<g>
			<g>
				<path class="st8" d="M406.11,124.44v5.35c0,3-2.43,5.42-5.42,5.42h-0.07c-3,0-5.42-2.42-5.42-5.42v-10.77h5.48
					C403.68,119.02,406.11,121.45,406.11,124.44z"/>
			</g>
		</g>
		<g>
			<g>
				<path class="st5" d="M399.6,124.54l-4.39,2.55v-3.83C396.16,123.9,397.56,124.4,399.6,124.54z"/>
			</g>
		</g>
		<g>
			<g>
				<ellipse class="st5" cx="404.1" cy="116.08" rx="2.46" ry="2.43"/>
			</g>
		</g>
		<g>
			<g>
				<path class="st5" d="M393.19,110.53c0.01,0.02-0.71-0.46-0.71-0.44c3.43,0.3,6.68,0.57,7.63,0.44c0.45,4.04,2.3,3.91,4.25,4.51
					c1.81,0.55,3.68-0.28,3.32-2.54c-0.2-1.29-1.18-3.06-2.2-3.87c-1.7-1.33-3.74-2.3-5.89-2.54c-2.15-0.23-4.43,0.31-6.1,1.68
					C392.79,108.34,392.9,109.7,393.19,110.53z"/>
			</g>
		</g>
		<g>
			<g>
				<g>
					<path class="st5" d="M398.25,115.86h-0.02c-0.25,0-0.45-0.2-0.45-0.45v0c0-0.25,0.2-0.45,0.45-0.45h0.02
						c0.25,0,0.45,0.2,0.45,0.45v0C398.71,115.66,398.5,115.86,398.25,115.86z"/>
				</g>
			</g>
			<g>
				<g>
					<g>
						<path class="st5" d="M396.19,119.57c0.17,0,0.34-0.04,0.49-0.13c0.27-0.16,0.41-0.44,0.39-0.76l-0.34,0.03
							c0.01,0.19-0.06,0.35-0.22,0.44c-0.17,0.1-0.48,0.14-0.82-0.08l-0.19,0.29C395.71,119.49,395.96,119.57,396.19,119.57z"/>
					</g>
				</g>
			</g>
			<g>
				<g>
					<g>
						<polygon class="st5" points="395.41,117.7 396.24,117.7 396.24,117.36 395.76,117.36 395.76,114.84 395.41,114.84 						"/>
					</g>
				</g>
			</g>
			<g>
				<g>
					<path class="st5" d="M394.03,115.86h-0.02c-0.25,0-0.45-0.2-0.45-0.45v0c0-0.25,0.2-0.45,0.45-0.45h0.02
						c0.25,0,0.45,0.2,0.45,0.45v0C394.49,115.66,394.28,115.86,394.03,115.86z"/>
				</g>
			</g>
		</g>
		<g>
			<g>
				<path class="st5" d="M405.07,121.04h0.02c1.19,0,2.16-0.97,2.16-2.16v-1.24c0-1.19-0.97-2.16-2.16-2.16h-0.02
					c-1.19,0-2.16,0.97-2.16,2.16v1.24C402.91,120.07,403.88,121.04,405.07,121.04z"/>
			</g>
		</g>
		<g>
			<g>
				<ellipse class="st8" cx="403.52" cy="115.87" rx="2.46" ry="2.43"/>
			</g>
		</g>
		<g>
			<g>
				<path class="st5" d="M400.11,110.53v2.26c0,0.76,0.63,1.38,1.4,1.38l0,0c0.77,0,1.4-0.62,1.4-1.38v-2.17L400.11,110.53z"/>
			</g>
		</g>
	</g>
	<g>
		<g>
			<path class="st6" d="M373.94,182.29c-0.03-17.05-2.35-33.89-4.68-50.74c5.26-3.03,11.01-4.81,17.54-3.9
				c7.58,1.06,15.26,0.9,22.89,0.64c3.18-0.11,6.07-0.73,9.32-0.33c9.99,1.25,11.56,5.11,14.16,14.06
				c2.84,9.82,4.86,19.88,5.99,30.04c0.46,4.13,0.58,8.85-2.31,11.83c-2.2,2.27-5.55,2.88-8.67,3.37
				c-10.37,1.65-19.65,0.59-30.13,0.16c-5.74-0.24-11.14-1.71-16.88-2.53c-1.86-0.38-5.06-0.13-6.64-1.27
				c-0.27-0.19-0.49-0.42-0.69-0.67C373.91,182.75,373.94,182.53,373.94,182.29z"/>
		</g>
	</g>
	<g>
		<g>
			<g>
				<polygon class="st9" points="407.29,137.64 408.66,128.31 408.22,128.25 406.96,136.87 398.59,130.76 390.36,135.62 
					391.1,128.04 390.65,128 389.83,136.43 398.56,131.27 				"/>
			</g>
		</g>
	</g>
	<g>
		<g>
			<path class="st8" d="M381.15,177.89c5.55,6.51,16.24,9.76,24.76,9.97c-0.37-3.41-2.93-6.54-3.05-9.97H381.15z"/>
		</g>
	</g>
	<g id="New_Symbol_36_99_">
		<g>
			<path class="st5" d="M353.46,177.93h34.59c1.34,0,2.42-1.08,2.42-2.42v-21.38c0-1.34-1.08-2.42-2.42-2.42h-34.59
				c-1.34,0-2.42,1.08-2.42,2.42v21.38C351.04,176.85,352.13,177.93,353.46,177.93z"/>
		</g>
		<g>
			<path class="st5" d="M368.12,177.93h32.59c1.2,0,2.17-0.97,2.17-2.17v-0.02c0-1.2-0.97-2.17-2.17-2.17h-32.59
				c-1.2,0-2.17,0.97-2.17,2.17v0.02C365.95,176.96,366.92,177.93,368.12,177.93z"/>
		</g>
		<g>
			<path class="st10" d="M368.08,165.38c0.77,0,1.4-0.63,1.4-1.4c0-0.62-0.4-1.14-0.96-1.33c0.48-0.39,1.1-0.63,1.77-0.63
				c1.55,0,2.8,1.26,2.8,2.8c0,1.55-1.26,2.8-2.8,2.8c-1.4,0-2.56-1.03-2.77-2.37C367.69,165.34,367.88,165.38,368.08,165.38z"/>
		</g>
	</g>
	<g>
		<g>
			<g>
				<path class="st5" d="M386.96,177.89c3.6,1.91,7.61,3.07,11.67,3.37l0.06-0.83c-3.39-0.25-6.75-1.12-9.86-2.55H386.96z"/>
			</g>
		</g>
	</g>
</g>
<g>
	<circle class="st5" cx="161.79" cy="107.89" r="23.28"/>
	<g id="XMLID_315_">
		<g>
			<g>
				<g>
					<path class="st8" d="M157.85,219.72c0.47,7.76,1.8,15.44,3.12,23.1c4.21,24.38,8.42,48.78,12.63,73.16
						c0.04,0.2,0.06,0.4,0.08,0.59c0.25,2.31-0.21,4.34,2.41,5.2l5.11,1.66c2.23,0.72,4.58,1.46,6.87,0.98
						c0.58-0.12,1.23-0.44,1.39-0.96c0.03-0.08,0.04-0.17,0.04-0.27c0-0.25-0.12-0.48-0.29-0.67c-0.14-0.17-0.32-0.32-0.49-0.46
						c-1.14-0.88-2.17-1.42-3.04-1.96c-1.51-0.92-2.55-1.86-2.87-4.62c-0.31-2.75-0.56-5.51-0.75-8.27
						c-1.26-17.55-0.48-35.24-0.77-52.85c-0.23-13.92-1.65-27.74-2.21-41.62c-0.41-10.12-12.51-16.07-18.76-6.82
						C157.69,209.79,157.56,214.95,157.85,219.72z"/>
				</g>
			</g>
			<g>
				<g>
					<path class="st6" d="M189.21,322.51c0.12,0.31,0.21,0.62,0.25,0.94c-0.16,0.52-0.81,0.84-1.39,0.96
						c-2.29,0.48-4.64-0.25-6.87-0.98l-5.11-1.66c-2.63-0.86-2.16-2.89-2.41-5.2c1.24-0.08,3.24,1.27,4.71,1.83
						c1.39,0.52,2.85,1.05,4.33,1.37c0.97,0.21,1.96,0.34,2.95,0.32L189.21,322.51z"/>
				</g>
			</g>
		</g>
		<g>
			<g>
				<g>
					<path class="st8" d="M134.31,218.72c-0.07,7.78,0.71,15.53,1.49,23.26c2.49,24.62,4.98,49.25,7.47,73.86
						c0.02,0.2,0.03,0.4,0.04,0.6c0.09,2.32-0.52,4.32,2.04,5.36l4.98,2.02c2.17,0.88,4.46,1.77,6.78,1.46
						c0.58-0.08,1.26-0.35,1.45-0.86c0.04-0.08,0.06-0.17,0.06-0.27c0.01-0.25-0.09-0.49-0.24-0.69c-0.13-0.18-0.29-0.34-0.46-0.49
						c-1.07-0.96-2.07-1.57-2.9-2.17c-1.44-1.02-2.41-2.03-2.54-4.81c-0.12-2.77-0.17-5.53-0.17-8.3
						c-0.03-17.59,1.99-35.18,2.94-52.78c0.74-13.9,0.3-27.79,0.71-41.67c0.3-10.13-11.35-16.9-18.24-8.12
						C134.84,208.81,134.35,213.94,134.31,218.72z"/>
				</g>
			</g>
			<g>
				<g>
					<path class="st6" d="M158.38,323.45c0.1,0.32,0.16,0.63,0.18,0.96c-0.19,0.51-0.87,0.79-1.45,0.86
						c-2.32,0.32-4.61-0.58-6.78-1.46l-4.98-2.02c-2.56-1.04-1.95-3.03-2.04-5.36c1.24,0.01,3.14,1.5,4.57,2.15
						c1.35,0.62,2.76,1.24,4.22,1.67c0.95,0.28,1.93,0.48,2.92,0.53L158.38,323.45z"/>
				</g>
			</g>
		</g>
		<g>
			<g>
				<g>
					<path class="st4" d="M184.74,288.16l1.48-97.83c-0.37-6.07-2.39-11.97-5.9-17.15c-2.97-4.39-6.62-7.26-6.62-7.26
						s-13.18-0.16-13.19-0.16c-5.51-0.06-8.82-0.44-11.73,1.16c-1.67,0.92-3.21,2.48-4.96,5.12c-5.77,8.68-9.34,18.56-10.29,28.65
						c-0.92,9.71,0.54,19.53-0.81,29.19c-0.83,5.98-2.72,11.81-3.69,17.77c-0.72,4.48-0.92,9.01-1.12,13.53
						c-0.38,8.57-0.75,17.14-1.13,25.71c0.5,1.07,1.12,2.07,1.87,2.96c0.91,0.55,1.87,1.01,2.87,1.41
						c16.66,0.01,41.94,0.63,51.6-1.36C183.7,289.38,184.25,288.79,184.74,288.16z"/>
				</g>
			</g>
		</g>
		<g>
			<g>
				<polygon class="st5" points="163.44,291.29 166.03,200.1 160.79,291.34 				"/>
			</g>
		</g>
		<g>
			<g>
				<path class="st5" d="M182.01,173.75c-3.17-0.16-6.33-0.45-9.46-0.89c-2.05-0.29-11.2-2.01-18.81-4.65
					c2.35-1.09,6.34-1.58,8.7-2.26c0.2-0.06,0.4-0.12,0.6-0.18l11.89,0.15C174.92,165.93,178.42,167.35,182.01,173.75z"/>
			</g>
		</g>
		<g id="New_Symbol_3_19_">
			<g>
				<path class="st8" d="M168.7,120.39v9.94c0,1.12-0.9,2.02-2.02,2.02h-2.99c-1.11,0-2.01-0.89-2.02-2l-0.03-2.67l0.82-5.5
					l0.01-0.1l0.27-2.91l0.01-0.15l2.14,0.49h0.01l0.25,0.06L168.7,120.39z"/>
			</g>
			<g>
				<path class="st5" d="M168.7,121.68v4.47c-1.54-0.75-2.73-2.12-3.25-3.77c-0.15-0.47-0.25-0.99-0.29-1.51L168.7,121.68z"/>
			</g>
			<g>
				<path class="st8" d="M172.95,113.1c-0.33-0.49-0.72-0.94-1.15-1.35c-0.07-0.06-0.14-0.12-0.21-0.19
					c-1.15-1.01-2.49-1.8-3.88-2.26c-0.47,0.3-1.05,0.49-1.75,0.49c-4.56,0-4.16,4.43-3.9,8.45c-0.13,0.11-0.26,0.26-0.25,0.27
					c0.38,0.43,0.38,1.87,0.59,2.81c0.14,0.18,0.28,0.37,0.41,0.56c0.12,0.16,0.22,0.33,0.33,0.49c1.43,0.98,3.03,1.68,4.67,1.84
					c2.23,0.21,5.26-0.76,6.17-3.04C175.04,118.57,174.55,115.43,172.95,113.1z"/>
			</g>
			<g>
				<polygon class="st5" points="171.41,117.83 171.23,117.41 171.85,117.14 171.19,114.43 171.63,114.32 172.39,117.4 				"/>
			</g>
			<g>
				<path class="st5" d="M169.93,119.56c-0.12,0-0.25-0.02-0.37-0.05c-0.42-0.13-0.72-0.47-0.8-0.93l0.48-0.08
					c0.04,0.27,0.21,0.47,0.46,0.54c0.27,0.08,0.7,0.02,1.09-0.39l0.36,0.33C170.79,119.35,170.35,119.56,169.93,119.56z"/>
			</g>
			<g>
				<path class="st5" d="M173.14,115.45l0.07-0.02c0.2-0.05,0.32-0.25,0.27-0.45l-0.02-0.07c-0.05-0.2-0.25-0.32-0.45-0.27
					l-0.07,0.02c-0.2,0.05-0.32,0.25-0.27,0.45l0.02,0.07C172.74,115.38,172.94,115.5,173.14,115.45z"/>
			</g>
			<g>
				<path class="st5" d="M168.48,116.17l0.07-0.02c0.2-0.05,0.32-0.25,0.27-0.45l-0.02-0.07c-0.05-0.2-0.25-0.32-0.45-0.27
					l-0.07,0.02c-0.2,0.05-0.32,0.25-0.27,0.45l0.02,0.07C168.08,116.1,168.28,116.22,168.48,116.17z"/>
			</g>
			<g>
				<path class="st5" d="M164.27,119.51c0.06,1.15-0.66,2.22-1.78,2.57l0.27-2.91L164.27,119.51L164.27,119.51z"/>
			</g>
			<g>
				<path class="st5" d="M171.81,111.75c-0.4,0.14-0.85,0.17-1.26,0.1c-0.98-0.15-1.84-0.72-2.67-1.27
					c-0.18,1.3-1.25,2.42-2.49,2.62c-0.27,0.05-0.54,0.05-0.78,0.16c-0.75,0.35-0.8,1.41-0.76,2.25c0.07,1.47-0.93,3.07-1.85,4.14
					c-0.26,0.32-0.57,0.6-0.95,0.75c-2.01-2.26-3.14-5.33-1.74-8.17c1.07-2.16,3.35-3.43,5.69-3.48c2.34-0.04,4.72,1.04,6.61,2.7
					C171.67,111.63,171.74,111.68,171.81,111.75z"/>
			</g>
			<g>
				<circle class="st8" cx="162.84" cy="118.8" r="2.55"/>
			</g>
		</g>
		<g>
			<g>
				<path class="st8" d="M215.65,133.26c0.27-0.71,0.7-1.33,1.17-1.92c0.64-0.8,1.44-1.61,2.17-2.33c0.34-0.34,0.64-1.06,1.19-1.03
					c0.23,0.01,0.37,0.12,0.46,0.33c0.25,0.6-0.58,1.56-0.84,2.05c-0.23,0.42-0.5,0.89-0.74,1.37c-0.09,0.31-0.22,0.62-0.35,0.93
					c0.09,0.02,0.22,0.03,0.43,0.01c1.12-0.1,2.31-0.55,3.41-0.81c2.22-0.53,4.44-1.05,6.66-1.61c0.27-0.07,0.55-0.04,0.79,0.07
					c0.1,0.05,0.09,0.2-0.02,0.23l-4.91,1.48c-0.1,0.03-0.15,0.13-0.12,0.23c0.01,0.05,0.05,0.09,0.09,0.11
					c0.04,0.02,0.09,0.03,0.14,0.01l5.03-1.52c0.19-0.06,0.39,0.04,0.47,0.22l0,0l-0.08-0.15c0.11,0.27-0.03,0.57-0.31,0.66
					l-4.62,1.52c-0.1,0.03-0.15,0.14-0.12,0.23c0.02,0.05,0.05,0.08,0.09,0.11c0.04,0.02,0.1,0.03,0.15,0.01l4.74-1.56
					c0.17-0.05,0.34,0.06,0.36,0.23l0,0.01c0.02,0.17-0.08,0.34-0.24,0.4l-4.69,1.83c-0.1,0.04-0.14,0.14-0.11,0.24
					c0.02,0.04,0.05,0.08,0.08,0.1c0.05,0.02,0.1,0.03,0.15,0.01l4.54-1.77c0.11,0.13,0.03,0.03,0.14,0.16
					c-0.24,0.44-0.74,0.71-1.21,0.94c-2.54,1.25-5.08,2.5-7.62,3.74c-0.71,0.35-1.42,0.7-2.01,1.22c-0.17,0.15-0.32,0.31-0.47,0.48
					c-0.07,0.12-0.14,0.25-0.23,0.4c-0.37,0.62-4.05,7.81-3.75,7.93l-0.33-0.12c-0.11,0.08-0.24,0.14-0.39,0.16
					c-0.17,0.02-0.34-0.01-0.51-0.05c-0.5-0.12-0.98-0.27-1.45-0.47c-0.67-0.28-1.34-0.66-1.81-1.21c-0.46-0.22-0.88-0.53-0.93-1.01
					c-0.03-0.3,0.1-0.6,0.22-0.87c1.34-2.91,2.84-5.74,4.5-8.48c0.02-0.03,0.03-0.07,0.05-0.1c0.2-0.44,0.34-0.91,0.45-1.38
					C215.38,133.94,215.54,133.57,215.65,133.26z"/>
			</g>
		</g>
		<g>
			<g>
				<path class="st8" d="M219.85,135.62c-0.35-0.19-0.76-0.3-1.16-0.34c-2.58-0.25-4.79,1.8-6.28,3.92
					c-3.79,5.36-5.39,11.9-7.88,17.97c-0.22,0.54-0.55,1.16-1.13,1.23c-0.57,0.07-1.03-0.44-1.38-0.89
					c-3.86-5-7.78-9.93-11.81-14.81c-3.19-3.87-7.2-8.49-11.81-10.63c-1.57-0.73-5.37-2.03-7.02-0.89
					c-1.66,1.14-1.25,3.49-1.12,5.46c0,0,0.6-0.12,1.2-0.24c0.38,1.27,0.92,2.45,1.29,3.18c0.03,0.07,0.07,0.14,0.1,0.2
					c0.75,5.51,3.93,10.14,7.98,13.84c1.74,1.59,3,4.2,4.54,6.04c1.67,1.99,3.46,3.88,5.39,5.62c3.72,3.37,8.17,6.25,13.06,7.6
					c1.22,0.34,2.57,0.54,3.72,0.02c1.38-0.62,2.14-2.11,2.72-3.51c1.76-4.19,2.74-8.63,4.16-12.89c0.49-1.48,0.95-3.01,1.42-4.55
					C217.23,146.52,218.68,141.1,219.85,135.62z"/>
			</g>
		</g>
		<g>
			<g>
				<path class="st7" d="M180.99,144.76c-0.38-7.46-2.52-14.48-10.72-15.92c-3.4-0.6-6.89-0.2-10.32,0.2
					c-4.85,0.56-9.5,1.74-11.96,6.3c-2.05,3.79-2.4,8.24-2.72,12.54c-0.27,3.68-3.08,14.94-1.24,18c1.42,2.36,5.93,2.07,8.63,2.32
					c10.06,0.96,20.3,0.22,30.16-1.93C185.66,165.65,183.26,153.55,180.99,144.76z"/>
			</g>
		</g>
		<g>
			<g>
				<path class="st8" d="M158.58,132.14c-0.15-0.22-0.31-0.43-0.5-0.61c-1.52-1.49-4.67-1.4-6.37-0.58
					c-1.8,0.87-3.16,2.51-4.33,4.21c-6.74,9.79-8.05,22.96-6.81,34.87c0.46,4.41,0.72,8.14,2.28,12.4c1.64,4.47,3.89,8.7,6.68,12.49
					c3.2,4.35,7.06,8.7,8.87,13.95c0.97,2.8,2.63,5.37,3.75,8.13c0.01,0.03,0.03,0.07,0.04,0.1c0.34,0.91,0.53,1.88,0.69,2.84
					c0.11,0.63-0.04,1.56,0.36,2.1c0.11,0.15,0.33,0.06,0.33-0.12c0.04-1.88-0.07-4.01-0.6-5.74c-0.04-0.12,0.02-0.24,0.13-0.27
					c0.11-0.04,0.22,0.03,0.26,0.14c0.6,1.95,0.69,4.37,0.61,6.41c0,0.08,0.04,0.16,0.12,0.2c0.12,0.05,0.24,0.09,0.37,0.13
					c0.11,0.03,0.22-0.05,0.23-0.17c0.19-2,0.03-4.22-0.48-6.72c-0.02-0.12,0.05-0.23,0.16-0.26c0.11-0.02,0.22,0.05,0.24,0.17
					c0.52,2.56,0.68,4.83,0.48,6.87c-0.01,0.12,0.08,0.22,0.19,0.22c0.07,0,0.14,0,0.21-0.01c0.09-0.01,0.16-0.07,0.17-0.17
					c0.33-2.31,0.27-4.7-0.19-7c-0.02-0.12,0.05-0.23,0.16-0.26c0.11-0.02,0.22,0.05,0.24,0.17c0.44,2.21,0.53,4.49,0.26,6.71
					c-0.02,0.18,0.18,0.31,0.31,0.18c0.01-0.01,0.01-0.01,0.02-0.02c0.25-0.25,0.43-0.99,0.5-1.31c0.46-2.25,0.5-4.73,0.21-7.09
					c-0.09-0.7-0.2-1.39-0.35-2.06c-0.61-2.81-2.27-5.32-3.38-7.93c-1.69-3.97-3.36-7.96-5.13-11.89c-0.89-1.97-1.8-3.92-2.75-5.86
					c-0.65-1.32-1.26-2.76-2.08-4.01c-0.41-1.65-0.72-3.32-0.9-5.01c-2.56-12.85,4.98-24.49,6.74-36.96
					C159.61,138.14,160.01,134.3,158.58,132.14z M154.68,186.32c-0.04-0.06-0.08-0.13-0.12-0.2c-0.01-0.04-0.02-0.07-0.04-0.11
					C154.57,186.12,154.63,186.21,154.68,186.32z"/>
			</g>
		</g>
	</g>
</g>
</svg>
